<svg width="17" height="17" viewBox="0 0 17 17" style="color: #F4B663;" xmlns="http://www.w3.org/2000/svg">
  <path fill="currentColor" d="M14.167 0H2.833A2.83 2.83 0 0 0 0 2.833v11.334A2.83 2.83 0 0 0 2.833 17h11.334A2.83 2.83 0 0 0 17 14.167V2.833A2.83 2.83 0 0 0 14.167 0zm.944 14.167a.935.935 0 0 1-.944.944H2.833a.935.935 0 0 1-.944-.944V7.556h2.965a3.929 3.929 0 0 0-.132.944c0 2.078 1.7 3.778 3.778 3.778 2.078 0 3.778-1.7 3.778-3.778a3.17 3.17 0 0 0-.132-.944h2.965v6.61zM6.611 8.5c0-1.039.85-1.889 1.889-1.889 1.039 0 1.889.85 1.889 1.889 0 1.039-.85 1.889-1.889 1.889A1.894 1.894 0 0 1 6.611 8.5zm8.5-2.833h-4.118A3.74 3.74 0 0 0 8.5 4.722a3.74 3.74 0 0 0-2.493.945H1.889V2.833c0-.529.415-.944.944-.944h11.334c.529 0 .944.415.944.944v2.834z"></path>
</svg>